<svg width="93" height="458" viewBox="0 0 93 458" fill="none" xmlns="http://www.w3.org/2000/svg">
<path d="M61.7995 188.799L58.9996 181.768C58.5744 180.7 57.5449 180 56.3999 180H39.6001C38.4551 180 37.4256 180.7 37.0004 181.768L34.2005 188.799C33.9332 189.47 33.9332 190.218 34.2005 190.888L37.0004 197.919C37.4256 198.987 38.4551 199.688 39.6001 199.688H41.0001C41.0001 201.241 42.2538 202.5 43.8001 202.5H45.2V203.58C45.2 206.925 47.0218 209.979 49.8402 211.362C51.2956 212.077 52.1999 213.53 52.1999 215.156C52.1999 217.403 50.2366 219.375 47.9993 219.375C45.684 219.375 43.8001 217.483 43.8001 215.156C43.8001 213.603 42.5464 212.344 41.0001 212.344C39.4538 212.344 38.2001 213.603 38.2001 215.156C38.2001 220.584 42.5963 225 47.9993 225C53.3114 225 57.7999 220.491 57.7999 215.156C57.7999 211.364 55.6917 207.974 52.2984 206.308C51.3879 205.861 50.8 204.791 50.8 203.58V202.5H52.1999C53.7462 202.5 54.9999 201.241 54.9999 199.688H56.3999C57.5449 199.688 58.5744 198.987 58.9996 197.919L61.7995 190.888C62.0668 190.218 62.0668 189.47 61.7995 188.799ZM41.4668 195.469H38.5151L42.2484 184.219H45.2L41.4668 195.469ZM47.6092 195.469H44.6575L48.3908 184.219H51.3425L47.6092 195.469ZM53.7516 195.469H50.8L54.5332 184.219H57.4849L53.7516 195.469Z" fill="#576359"/>
<path d="M47 221L7 386" stroke="#576359" stroke-width="3" stroke-linecap="round"/>
<path d="M50 221C58.7309 257.785 62.5 340.5 64 367.5" stroke="#576359" stroke-width="3" stroke-linecap="round"/>
<path d="M50 221C66.1305 278.695 96.7265 402.468 90.0661 436" stroke="#576359" stroke-width="3" stroke-linecap="round"/>
<path d="M7.08755 387.228L65.3485 366.023L91 436.5L32.7391 457.705L7.08755 387.228Z" fill="#DBEA8D"/>
<path d="M2 1L17.6868 121.293C18.3363 126.274 22.5798 130 27.6028 130H71.0739C76.4038 130 80.7971 125.82 81.0616 120.496L87 1" stroke="#576359" stroke-width="4"/>
<circle cx="47.5" cy="103.5" r="37.5" fill="#576359"/>
<path d="M75.8136 77H19.2446C12.9189 77 8.18244 82.7996 9.44614 88.9977L26.3685 171.998C27.318 176.655 31.4141 180 36.1669 180H59.2942C64.0645 180 68.1706 176.631 69.1018 171.952L85.6212 88.952C86.8523 82.7667 82.1202 77 75.8136 77Z" fill="#DBEA8D"/>
<path d="M18.5001 134L72.5002 156L70.0002 167L20.5 145.5L18.5001 134Z" fill="#576359"/>
<path d="M11.5 99L78 128L75.8555 138L13.5 110.5L11.5 99Z" fill="#576359"/>
<path d="M51.5001 220C38.6667 292 17.3001 440.1 34.5001 456.5" stroke="#576359" stroke-width="3" stroke-linecap="round"/>
</svg>
