<svg width="869" height="361" viewBox="0 0 869 361" fill="none" xmlns="http://www.w3.org/2000/svg">
<path fill-rule="evenodd" clip-rule="evenodd" d="M762 6.00001H735.609L599.609 224V288H753.109V355H824.609V288H868.609V230H824.609V81H762V6.00001ZM153.5 288V355H225V288H269V230H225V6.00001H136L0 224V288H153.5ZM153.5 230H60L148.5 83.5H153.5V230ZM333.305 313.5C355.305 345.167 389.138 361 434.805 361C480.471 361 514.305 345.167 536.305 313.5C558.305 281.833 569.305 237.5 569.305 180.5C569.305 123.5 558.305 79.1667 536.305 47.5C514.305 15.8333 480.471 0 434.805 0C389.138 0 355.305 15.8333 333.305 47.5C311.305 79.1667 300.305 123.5 300.305 180.5C300.305 237.5 311.305 281.833 333.305 313.5ZM476.305 275.5C468.638 290.167 454.805 297.5 434.805 297.5C414.805 297.5 400.971 290.167 393.305 275.5C385.638 260.833 381.805 240.167 381.805 213.5V147.5C381.805 120.833 385.638 100.167 393.305 85.5C400.971 70.8333 414.805 63.5 434.805 63.5C454.805 63.5 468.638 70.8333 476.305 85.5C483.971 100.167 487.805 120.833 487.805 147.5V213.5C487.805 240.167 483.971 260.833 476.305 275.5ZM753.109 230H659.609L748.109 83.5H753.109V230Z" fill="#DBEA8D"/>
</svg>
